<svg width="20" height="20" viewBox="0 0 20 20" fill="none" xmlns="http://www.w3.org/2000/svg">
<path d="M10 0C8.02219 0 6.08879 0.58649 4.4443 1.6853C2.79981 2.78412 1.51809 4.3459 0.761209 6.17317C0.00433285 8.00043 -0.193701 10.0111 0.192152 11.9509C0.578004 13.8907 1.53041 15.6725 2.92894 17.0711C4.32746 18.4696 6.10929 19.422 8.0491 19.8079C9.98891 20.1937 11.9996 19.9957 13.8268 19.2388C15.6541 18.4819 17.2159 17.2002 18.3147 15.5557C19.4135 13.9112 20 11.9778 20 10C19.9969 7.34878 18.9424 4.80702 17.0677 2.93232C15.193 1.05762 12.6512 0.00306424 10 0ZM14.7626 8.24895L9.1211 13.6336C8.97766 13.77 8.78724 13.8462 8.58925 13.8462C8.39125 13.8462 8.20084 13.77 8.0574 13.6336L5.23738 10.9413C5.09006 10.8001 5.00477 10.6063 5.00025 10.4023C4.99574 10.1984 5.07236 10.0009 5.2133 9.85344C5.35424 9.70593 5.54797 9.6204 5.75192 9.61562C5.95588 9.61085 6.1534 9.68722 6.30109 9.82797L8.58925 12.0132L13.6989 7.13567C13.8466 6.99492 14.0441 6.91854 14.2481 6.92331C14.452 6.92809 14.6458 7.01362 14.7867 7.16113C14.9276 7.30864 15.0043 7.50606 14.9998 7.71002C14.9952 7.91399 14.91 8.10782 14.7626 8.24895Z" fill="#0A0A0A"/>
</svg>
