<svg width="24" height="20" viewBox="0 0 24 20" fill="none" xmlns="http://www.w3.org/2000/svg">
<path fill-rule="evenodd" clip-rule="evenodd" d="M2 4.51429C2 3.12568 3.14532 2 4.55814 2H19.4419C20.8547 2 22 3.12568 22 4.51429V15.4857C22 16.8743 20.8547 18 19.4419 18H4.55814C3.14532 18 2 16.8743 2 15.4857V4.51429ZM4.55814 3.37143C3.91595 3.37143 3.39535 3.8831 3.39535 4.51429V15.4857C3.39535 16.1169 3.91595 16.6286 4.55814 16.6286H19.4419C20.0841 16.6286 20.6047 16.1169 20.6047 15.4857V4.51429C20.6047 3.8831 20.0841 3.37143 19.4419 3.37143H4.55814Z" fill="white"/>
<path d="M10.7785 11.1083C10.702 11.9389 10.4033 12.5878 9.88226 13.0548C9.36122 13.5183 8.66824 13.75 7.80331 13.75C7.1989 13.75 6.6657 13.6038 6.20371 13.3115C5.74519 13.0156 5.39088 12.5967 5.14078 12.0548C4.89068 11.5129 4.76042 10.8837 4.75 10.1671V9.43984C4.75 8.70544 4.87679 8.05838 5.13036 7.49866C5.38393 6.93895 5.74693 6.50758 6.21934 6.20455C6.69522 5.90152 7.24405 5.75 7.86583 5.75C8.70297 5.75 9.37685 5.98351 9.88748 6.45053C10.3981 6.91756 10.6951 7.57709 10.7785 8.42914H9.46543C9.40291 7.86943 9.24312 7.46658 8.98607 7.22059C8.7325 6.97103 8.35909 6.84626 7.86583 6.84626C7.29269 6.84626 6.85154 7.06194 6.54238 7.49332C6.23671 7.92112 6.08039 8.55036 6.07345 9.38102V10.0709C6.07345 10.9122 6.21934 11.5539 6.51112 11.996C6.80638 12.4381 7.23711 12.6591 7.80331 12.6591C8.32088 12.6591 8.70992 12.5397 8.97044 12.3008C9.23096 12.0619 9.39596 11.6644 9.46543 11.1083H10.7785Z" fill="white"/>
<path d="M17.75 11.1083C17.6736 11.9389 17.3749 12.5878 16.8538 13.0548C16.3328 13.5183 15.6398 13.75 14.7748 13.75C14.1704 13.75 13.6372 13.6038 13.1753 13.3115C12.7167 13.0156 12.3624 12.5967 12.1123 12.0548C11.8622 11.5129 11.732 10.8837 11.7215 10.1671V9.43984C11.7215 8.70544 11.8483 8.05838 12.1019 7.49866C12.3555 6.93895 12.7185 6.50758 13.1909 6.20455C13.6668 5.90152 14.2156 5.75 14.8374 5.75C15.6745 5.75 16.3484 5.98351 16.859 6.45053C17.3696 6.91756 17.6666 7.57709 17.75 8.42914H16.437C16.3744 7.86943 16.2147 7.46658 15.9576 7.22059C15.704 6.97103 15.3306 6.84626 14.8374 6.84626C14.2642 6.84626 13.8231 7.06194 13.5139 7.49332C13.2083 7.92112 13.0519 8.55036 13.045 9.38102V10.0709C13.045 10.9122 13.1909 11.5539 13.4827 11.996C13.7779 12.4381 14.2087 12.6591 14.7748 12.6591C15.2924 12.6591 15.6815 12.5397 15.942 12.3008C16.2025 12.0619 16.3675 11.6644 16.437 11.1083H17.75Z" fill="white"/>
</svg>
