<svg width="36" height="36" viewBox="0 0 36 36" fill="none" xmlns="http://www.w3.org/2000/svg">
<path d="M30.375 6.75V29.25C30.3743 29.8465 30.137 30.4184 29.7152 30.8402C29.2934 31.262 28.7215 31.4993 28.125 31.5H23.0625C22.466 31.4993 21.8941 31.262 21.4723 30.8402C21.0505 30.4184 20.8132 29.8465 20.8125 29.25V6.75C20.8132 6.15347 21.0505 5.58157 21.4723 5.15976C21.8941 4.73795 22.466 4.50068 23.0625 4.5H28.125C28.7215 4.50068 29.2934 4.73795 29.7152 5.15976C30.137 5.58157 30.3743 6.15347 30.375 6.75ZM12.9375 4.5H7.875C7.27847 4.50068 6.70657 4.73795 6.28476 5.15976C5.86295 5.58157 5.62568 6.15347 5.625 6.75V29.25C5.62568 29.8465 5.86295 30.4184 6.28476 30.8402C6.70657 31.262 7.27847 31.4993 7.875 31.5H12.9375C13.534 31.4993 14.1059 31.262 14.5277 30.8402C14.9495 30.4184 15.1868 29.8465 15.1875 29.25V6.75C15.1868 6.15347 14.9495 5.58157 14.5277 5.15976C14.1059 4.73795 13.534 4.50068 12.9375 4.5Z" fill="white"/>
</svg>
