<svg width="31" height="31" viewBox="0 0 31 31" fill="none" xmlns="http://www.w3.org/2000/svg">
<path fill-rule="evenodd" clip-rule="evenodd" d="M2.98077 0C1.33454 0 0 1.33494 0 2.98167V22.0644C0 23.7111 1.33454 25.0461 2.98077 25.0461H23.25L28.3142 30.5014C29.2727 31.5341 31 30.8555 31 29.4464V25.0461V2.98167C31 1.33494 29.6654 0 28.0192 0H2.98077ZM5.96154 8.94502C5.96154 7.95698 6.76225 7.15601 7.75 7.15601H23.25C24.2377 7.15601 25.0385 7.95698 25.0385 8.94502C25.0385 9.93303 24.2377 10.734 23.25 10.734H7.75C6.76225 10.734 5.96154 9.93303 5.96154 8.94502ZM5.96154 16.101C5.96154 15.113 6.76225 14.312 7.75 14.312H18.4808C19.4685 14.312 20.2692 15.113 20.2692 16.101C20.2692 17.089 19.4685 17.89 18.4808 17.89H7.75C6.76225 17.89 5.96154 17.089 5.96154 16.101Z" fill="white"/>
</svg>
