<svg width="1" height="1" viewBox="0 0 1 1" fill="none" xmlns="http://www.w3.org/2000/svg">
<g clip-path="url(#clip0_0_4)">
<rect x="0.292826" y="0.291362" width="0.45811" height="0.458108" fill="#0A0A0A"/>
<path d="M0.498781 0.0629575C0.257297 0.0629575 0.0614934 0.25876 0.0614934 0.500242C0.0614934 0.741725 0.257297 0.937527 0.498781 0.937527C0.740265 0.937527 0.936068 0.741725 0.936068 0.500242C0.936068 0.25876 0.740265 0.0629575 0.498781 0.0629575ZM0.639435 0.506977L0.426257 0.662077C0.425089 0.662917 0.423711 0.663418 0.422276 0.663526C0.420841 0.663634 0.419404 0.663344 0.418123 0.662688C0.416842 0.662032 0.415766 0.661036 0.415014 0.659809C0.414262 0.658582 0.413863 0.657171 0.413861 0.655732V0.345729C0.413856 0.344287 0.414251 0.342871 0.415001 0.34164C0.415752 0.340408 0.416828 0.339409 0.418112 0.338752C0.419396 0.338095 0.420836 0.337806 0.422274 0.337918C0.423712 0.338029 0.42509 0.338537 0.426257 0.339384L0.639435 0.494386C0.640442 0.495098 0.641264 0.496042 0.641831 0.497137C0.642398 0.498233 0.642694 0.499448 0.642694 0.500682C0.642694 0.501915 0.642398 0.503131 0.641831 0.504226C0.641264 0.505322 0.640442 0.506265 0.639435 0.506977Z" fill="white"/>
</g>
<defs>
<clipPath id="clip0_0_4">
<rect width="0.0833335" height="0.083333" fill="white" transform="scale(11.9941)"/>
</clipPath>
</defs>
</svg>
