<svg width="16" height="19" viewBox="0 0 16 19" fill="none" xmlns="http://www.w3.org/2000/svg">
<path d="M15.5 17.75L15.5 1.25C15.5 0.835786 15.1642 0.5 14.75 0.5L1.25 0.499999C0.835787 0.499999 0.5 0.835786 0.5 1.25L0.499999 17.75C0.499999 18.1642 0.835786 18.5 1.25 18.5L14.75 18.5C15.1642 18.5 15.5 18.1642 15.5 17.75Z" stroke="black" stroke-linecap="round" stroke-linejoin="round"/>
<path d="M12.5 16.625L12.5 18.5" stroke="black" stroke-linecap="round" stroke-linejoin="round"/>
<path d="M3.5 16.625L3.5 18.5" stroke="black" stroke-linecap="round" stroke-linejoin="round"/>
<path d="M12.5 0.5L12.5 2.375" stroke="black" stroke-linecap="round" stroke-linejoin="round"/>
<path d="M3.5 0.5L3.5 2.375" stroke="black" stroke-linecap="round" stroke-linejoin="round"/>
<path d="M12.5 6.125L12.5 7.625" stroke="black" stroke-linecap="round" stroke-linejoin="round"/>
<path d="M3.5 6.125L3.5 7.625" stroke="black" stroke-linecap="round" stroke-linejoin="round"/>
<path d="M12.5 11.375L12.5 12.875" stroke="black" stroke-linecap="round" stroke-linejoin="round"/>
<path d="M3.5 11.375L3.5 12.875" stroke="black" stroke-linecap="round" stroke-linejoin="round"/>
</svg>
