<svg width="1" height="1" viewBox="0 0 1 1" fill="none" xmlns="http://www.w3.org/2000/svg">
<g clip-path="url(#clip0_0_15)">
<path d="M0.237314 0.154107L0.178621 0.0949984C0.0414634 0.23124 0.0414634 0.329977 0.0414634 0.457561H0.0830894L0.124715 0.454939C0.124715 0.333058 0.124715 0.265915 0.237314 0.154107ZM0.820036 0.0949984L0.761427 0.154107C0.873984 0.265915 0.873984 0.333058 0.873984 0.457561L0.957236 0.454939C0.957236 0.329977 0.957236 0.23124 0.820036 0.0949984ZM0.49935 0.915447C0.525129 0.91548 0.550277 0.90748 0.5713 0.89256C0.592322 0.877639 0.608174 0.85654 0.616652 0.832195H0.382047C0.390525 0.85654 0.406377 0.877639 0.427399 0.89256C0.448422 0.90748 0.473571 0.91548 0.49935 0.915447ZM0.790732 0.606832V0.415935C0.790732 0.282024 0.699779 0.169218 0.576566 0.135292C0.564369 0.104572 0.534565 0.0829268 0.49935 0.0829268C0.464134 0.0829268 0.43433 0.104572 0.422133 0.135292C0.298879 0.169218 0.207967 0.282024 0.207967 0.415935V0.606832L0.136912 0.677887C0.133039 0.681746 0.129967 0.686333 0.127874 0.691384C0.125781 0.696435 0.124708 0.70185 0.124715 0.707317V0.748943C0.124715 0.759983 0.129101 0.770571 0.136907 0.778377C0.144714 0.786184 0.155302 0.790569 0.166341 0.790569H0.832358C0.843398 0.790569 0.853985 0.786184 0.861792 0.778377C0.869598 0.770571 0.873984 0.759983 0.873984 0.748943V0.707317C0.873992 0.70185 0.872918 0.696435 0.870825 0.691384C0.868732 0.686333 0.86566 0.681746 0.861787 0.677887L0.790732 0.606832Z" fill="#FF0000"/>
</g>
<defs>
<clipPath id="clip0_0_15">
<rect width="0.1" height="0.1" fill="white" transform="scale(9.99024)"/>
</clipPath>
</defs>
</svg>
